<?xml version="1.0" encoding="UTF-8"?>
<svg version="1.1" xmlns="http://www.w3.org/2000/svg" width="400" height="400">
<path d="M0 0 C1.23391228 -0.01058945 1.23391228 -0.01058945 2.49275208 -0.02139282 C36.44592663 -0.24667095 36.44592663 -0.24667095 51.171875 3.203125 C52.06503418 3.40180176 52.95819336 3.60047852 53.87841797 3.80517578 C80.05158526 9.7223948 105.43787555 20.28134731 127.171875 36.203125 C128.73228516 37.33814453 128.73228516 37.33814453 130.32421875 38.49609375 C137.93010108 44.13609215 144.93699192 50.32606186 151.77490234 56.86914062 C152.96618746 58.00671173 154.17117264 59.12990724 155.37890625 60.25 C187.35060068 90.72403868 210.20998236 140.36129218 211.33300781 184.46582031 C211.35254956 185.98756911 211.36630412 187.50940058 211.375 189.03125 C211.38205963 189.85385818 211.38911926 190.67646637 211.39639282 191.52400208 C211.62167095 225.47717663 211.62167095 225.47717663 208.171875 240.203125 C207.87385986 241.54286377 207.87385986 241.54286377 207.56982422 242.90966797 C201.6526052 269.08283526 191.09365269 294.46912555 175.171875 316.203125 C174.41519531 317.24339844 173.65851563 318.28367187 172.87890625 319.35546875 C167.23890785 326.96135108 161.04893814 333.96824192 154.50585938 340.80615234 C153.36828827 341.99743746 152.24509276 343.20242264 151.125 344.41015625 C120.65096132 376.38185068 71.01370782 399.24123236 26.90917969 400.36425781 C25.38743089 400.38379956 23.86559942 400.39755412 22.34375 400.40625 C21.10983772 400.41683945 21.10983772 400.41683945 19.85099792 400.42764282 C-14.10217663 400.65292095 -14.10217663 400.65292095 -28.828125 397.203125 C-30.16786377 396.90510986 -30.16786377 396.90510986 -31.53466797 396.60107422 C-57.70783526 390.6838552 -83.09412555 380.12490269 -104.828125 364.203125 C-105.86839844 363.44644531 -106.90867187 362.68976563 -107.98046875 361.91015625 C-115.58635108 356.27015785 -122.59324192 350.08018814 -129.43115234 343.53710938 C-130.62243746 342.39953827 -131.82742264 341.27634276 -133.03515625 340.15625 C-165.00685068 309.68221132 -187.86623236 260.04495782 -188.98925781 215.94042969 C-189.00879956 214.41868089 -189.02255412 212.89684942 -189.03125 211.375 C-189.03830963 210.55239182 -189.04536926 209.72978363 -189.05264282 208.88224792 C-189.27792095 174.92907337 -189.27792095 174.92907337 -185.828125 160.203125 C-185.62944824 159.30996582 -185.43077148 158.41680664 -185.22607422 157.49658203 C-179.3088552 131.32341474 -168.74990269 105.93712445 -152.828125 84.203125 C-152.07144531 83.16285156 -151.31476563 82.12257813 -150.53515625 81.05078125 C-144.89515785 73.44489892 -138.70518814 66.43800808 -132.16210938 59.60009766 C-131.02453827 58.40881254 -129.90134276 57.20382736 -128.78125 55.99609375 C-97.01652998 22.67028706 -45.85508406 0.26201706 0 0 Z " fill="#FEFEFE" transform="translate(188.828125,-0.203125)"/>
<path d="M0 0 C2.6700849 -0.27621568 4.25700667 -1.15671138 6.5625 -2.5625 C12.1063181 -4.88082393 17.73224393 -4.99564443 23.5 -3.23828125 C32.89558416 0.77706131 40.40516179 6.37755836 44.35961914 16.01342773 C45.50354297 19.56207744 45.7997137 23.17566555 46.125 26.875 C46.1666776 31.83676226 46.1666776 31.83676226 48 36 C52.53975403 35.96026473 56.71664063 35.25409177 60.875 33.4375 C66.73111881 31.10202405 72.66429888 30.94969178 78.6796875 32.84375 C86.6106514 36.41147844 92.04788459 41.93438262 95.3503418 50.00585938 C96.55053095 53.68986726 96.9500342 57.48115634 97.4375 61.3125 C98.77066125 70.49073478 100.06920269 78.17103985 106.75 85 C109.57370315 88.00587755 110.53116898 89.91660127 110.6875 94.0625 C110.25774042 99.882161 107.96166521 103.38444639 104.5 108 C103.7575 108.495 103.7575 108.495 103 109 C100.90625 108.5625 100.90625 108.5625 99 108 C99.42152344 107.44570312 99.84304688 106.89140625 100.27734375 106.3203125 C101.09912109 105.23363281 101.09912109 105.23363281 101.9375 104.125 C102.48277344 103.40570313 103.02804687 102.68640625 103.58984375 101.9453125 C105.6819821 99.05920475 106.57324559 96.7336212 106.55078125 93.109375 C105.78555474 90.17872026 104.21531944 88.53983416 102.25 86.25 C95.29611549 78.09208601 93.87870302 69.84937735 92.54296875 59.4375 C91.29776046 51.55416693 89.33414544 44.9306666 82.7109375 40.08203125 C77.28461906 36.65031844 72.32036759 36.36334983 66 37 C64.31935232 37.45077837 62.65127675 37.95130804 61 38.5 C56.08275282 40.13131423 51.15123927 40.96408515 46 40 C43.53119202 38.08541422 43.01307188 37.03921565 42 34 C41.89751436 31.62574935 41.81718619 29.25051162 41.75 26.875 C41.30600148 18.26039612 38.974208 12.5023074 32.625 6.625 C25.10634298 0.84141767 18.38237305 0.08551554 9 1 C6.20102315 1.93127524 6.20102315 1.93127524 4 3 C4.39832031 3.60585937 4.79664063 4.21171875 5.20703125 4.8359375 C11.5670352 14.8943379 14.3216106 24.00494732 13 36 C10.30374756 46.71892512 10.30374756 46.71892512 6 50 C2.5625 50.125 2.5625 50.125 -1 49 C-8.25945765 40.70038125 -6.52959459 27.91327742 -6.20556641 17.71386719 C-5.82713477 12.71785051 -4.41405843 8.40781204 -2 4 C-13.99145097 -5.08443255 -26.2379181 -7.57162849 -41 -6 C-50.00523097 -4.28471791 -57.27482094 0.5744094 -62.48046875 8.15625 C-64.53940547 11.87607356 -64.53940547 11.87607356 -64.68554688 16.01367188 C-63.55388119 19.29260065 -62.00770345 22.38165753 -60.5 25.5 C-56.95673247 32.8284449 -54.16388361 39.92842494 -56.63671875 48.10546875 C-58.48995536 52.48995536 -58.48995536 52.48995536 -60 54 C-63.3125 54.375 -63.3125 54.375 -67 54 C-71.2998421 50.04879375 -72.81886246 45.32548641 -73.265625 39.58984375 C-73.23349766 32.08007896 -72.72628033 25.13809077 -71.046875 17.8046875 C-70.7453279 14.87033632 -70.7453279 14.87033632 -72.6640625 12.30859375 C-77.53964647 7.49008183 -83.36503178 4.72870711 -90.25 4.4375 C-96.09904422 4.76754011 -99.3303984 7.19126493 -103.25 11.4375 C-108.92873729 19.75279388 -108.81191911 30.01209658 -107.5 39.6875 C-107.335 40.450625 -107.17 41.21375 -107 42 C-106.34515625 41.93039063 -105.6903125 41.86078125 -105.015625 41.7890625 C-96.80831626 41.30218825 -90.88218917 43.55765047 -84 48 C-82.64560332 50.70879335 -82.93498549 53.00933268 -83 56 C-87.18342209 58.09171104 -92.44431674 57.4298941 -97 57 C-101.45286347 54.81404884 -104.69729858 51.69125452 -108 48 C-108 47.34 -108 46.68 -108 46 C-112.96155745 47.81287676 -116.4548011 49.11321811 -119 54 C-120.39837458 62.92364809 -117.91693335 70.3731402 -113.1875 77.875 C-108.99921749 81.9436173 -105.39778013 84.23967207 -99.5625 84.25 C-98.386875 84.1675 -97.21125 84.085 -96 84 C-96 85.32 -96 86.64 -96 88 C-103.2556521 88.43533913 -107.41753535 87.35918404 -113.5625 83.3125 C-119.78548375 77.40864362 -124.03885519 69.06034509 -124.375 60.4375 C-124.14741174 54.68842263 -122.28847953 50.55973838 -118.625 46.125 C-115.93200196 43.94495397 -114.40642186 43.29197902 -111 43 C-111.16008545 42.4220166 -111.3201709 41.8440332 -111.48510742 41.24853516 C-113.46458241 32.60417069 -113.25844798 21.12615804 -109.328125 13.11328125 C-105.36611553 6.80902501 -101.41262763 2.0448628 -94 0 C-86.68009487 -1.20402178 -81.11032877 0.99882025 -75 5 C-72.77545028 6.88843485 -70.93962266 8.80516383 -69 11 C-68.36384766 10.02160156 -68.36384766 10.02160156 -67.71484375 9.0234375 C-60.78287577 -1.30595655 -53.74326866 -7.15647145 -41.5625 -10.25 C-26.3739803 -13.12562335 -12.58669106 -8.39112737 0 0 Z " fill="#151412" transform="translate(207,105)"/>
<path d="M0 0 C11.09269783 8.15321026 20.43271966 17.8888821 29 28.61328125 C33.25646719 33.69277627 37.71997325 37.60669363 44.453125 38.4140625 C45.70609375 38.48367187 46.9590625 38.55328125 48.25 38.625 C49.51328125 38.69976562 50.7765625 38.77453125 52.078125 38.8515625 C53.04234375 38.90054688 54.0065625 38.94953125 55 39 C54.34 40.32 53.68 41.64 53 43 C44.68349063 43.63700923 37.55451395 42.63356444 30.875 37.3046875 C27.34558097 33.8993496 24.32196913 30.17643218 21.3125 26.3125 C4.57958063 5.11094524 -16.9679596 -7.92309396 -43.99291992 -11.58764648 C-50.53295598 -12.32770827 -57.09221188 -12.4096503 -63.66796875 -12.42553711 C-65.99844856 -12.43749204 -68.32631958 -12.48693755 -70.65625 -12.53710938 C-83.38943177 -12.67427686 -95.09873565 -10.54978698 -105.1015625 -1.94140625 C-114.02101676 7.17992866 -116.43240952 17.18987579 -116.36254883 29.58398438 C-116.21987071 40.03201721 -116.21987071 40.03201721 -112 49 C-105.65389049 49.44621082 -100.91253867 48.26708993 -95 46.0625 C-86.58993216 42.96971908 -79.08030416 41.82121285 -70.0625 41.8125 C-68.75410156 41.79832031 -67.44570312 41.78414062 -66.09765625 41.76953125 C-51.53421197 42.18364298 -37.58940717 45.233999 -23.50317383 48.69189453 C-6.11203329 53.30095472 -6.11203329 53.30095472 11 50 C14.28779534 45.25203673 15.51738218 39.67075944 16 34 C16.99 34 17.98 34 19 34 C19.40306544 41.52388822 18.47976759 47.08627308 13.5 52.9375 C7.7009374 57.72172665 -0.91242096 56.63298179 -8.08300781 56.28710938 C-16.56974346 55.45178956 -24.84351007 52.8492624 -33.08007812 50.73095703 C-55.76556871 45.05199727 -79.60271213 44.00759426 -101.62109375 52.46875 C-105.21621316 53.82312287 -108.11560133 54.54228327 -112 54 C-119.07489023 48.21145345 -119.97431891 41.70274866 -121 33 C-121.99904314 19.8600428 -119.43684196 8.34707033 -111 -2 C-83.97872952 -29.3952673 -28.95672906 -19.45093386 0 0 Z " fill="#171717" transform="translate(243,178)"/>
<path d="M0 0 C5.13550836 3.75795784 8.30164964 8.10551351 9.8203125 14.33203125 C-0.80268887 23.97912436 -14.11409452 23.70271958 -27.8046875 23.70703125 C-29.77985352 23.70956909 -29.77985352 23.70956909 -31.79492188 23.7121582 C-37.72565136 23.64316964 -42.58333366 23.44874309 -48.1796875 21.33203125 C-47.85544888 15.98209397 -44.85985399 12.91018886 -41.1796875 9.33203125 C-38.59128555 7.21298046 -35.92884804 5.23690644 -33.1796875 3.33203125 C-33.5096875 2.67203125 -33.8396875 2.01203125 -34.1796875 1.33203125 C-33.46683594 1.21085938 -32.75398438 1.0896875 -32.01953125 0.96484375 C-27.79266658 0.22528466 -23.71488209 -0.49895993 -19.6171875 -1.79296875 C-12.67999174 -3.5588004 -6.31788882 -3.61935736 0 0 Z " fill="#F9D14F" transform="translate(289.1796875,143.66796875)"/>
<path d="M0 0 C3.0165998 2.58565697 4.34598553 4.46560511 4.9609375 8.3984375 C5.05645621 13.8430041 4.35777479 16.99878427 0.625 21.25 C-2.34110357 23.58050995 -5.61429081 23.72717205 -9.34375 23.63671875 C-13.64045647 22.81869194 -16.16676918 19.8426679 -18.75 16.4375 C-20.22969134 11.2585803 -20.05813147 7.56746783 -17.625 2.875 C-12.72832137 -2.83779173 -6.58393652 -3.41389301 0 0 Z " fill="#101010" transform="translate(106.375,252.75)"/>
<path d="M0 0 C2.87019446 2.33140357 5.14128852 4.79641878 7 8 C7 8.99 7 9.98 7 11 C-2.93391348 14.19026464 -15.2770954 12.29431398 -25.25 10.1875 C-26.42767944 9.93963745 -26.42767944 9.93963745 -27.62915039 9.68676758 C-32.11460622 8.65777118 -35.94518947 7.25338993 -40 5 C-38.99562793 2.26080344 -38.37175596 1.19620453 -35.75 -0.1875 C-25.67588439 -3.16394325 -9.9902635 -4.09899516 0 0 Z " fill="#FAD355" transform="translate(307,188)"/>
<path d="M0 0 C0.886875 -0.01417969 1.77375 -0.02835938 2.6875 -0.04296875 C5 0.1875 5 0.1875 7 2.1875 C7.77233468 7.72256523 5.88941312 10.672792 3 15.1875 C3.7425 15.249375 4.485 15.31125 5.25 15.375 C8.98229179 16.47772258 10.09610628 17.81907265 12 21.1875 C12 26.61256567 10.59450451 30.15464129 7 34.1875 C0.43700497 38.17909206 -5.2547516 40.47436105 -13 40.1875 C-14 39.1875 -14 39.1875 -14.09765625 36.32348633 C-14.08605469 35.06818115 -14.07445312 33.81287598 -14.0625 32.51953125 C-14.05871338 31.84709885 -14.05492676 31.17466644 -14.05102539 30.4818573 C-14.03466452 27.59777429 -14.00674562 24.7138315 -13.97949219 21.82983398 C-13.96129106 19.72640653 -13.94926146 17.62300306 -13.9375 15.51953125 C-13.92589844 14.25858643 -13.91429687 12.9976416 -13.90234375 11.69848633 C-13.9933809 8.42547305 -14.37366772 5.39652825 -15 2.1875 C-13.68 2.1875 -12.36 2.1875 -11 2.1875 C-8.75265072 5.78014833 -8.76799492 8.73892073 -8.8046875 12.921875 C-8.81113281 14.21738281 -8.81757812 15.51289063 -8.82421875 16.84765625 C-8.84092807 18.21094019 -8.85785794 19.57422144 -8.875 20.9375 C-8.8850366 22.31639985 -8.89416127 23.69530665 -8.90234375 25.07421875 C-8.92591907 28.44548882 -8.9588273 31.81640636 -9 35.1875 C-7.05679887 34.45239756 -5.12058409 33.69880951 -3.1875 32.9375 C-2.10855469 32.51984375 -1.02960938 32.1021875 0.08203125 31.671875 C3.08857435 30.1424421 4.34702125 29.08447306 6 26.1875 C6.50059916 23.60232413 6.50059916 23.60232413 6 21.1875 C2.55549263 18.89116176 0.06187717 18.64733515 -4 18.1875 C-3.58103969 13.29962973 -1.41618129 11.5160869 2 8.1875 C2 7.1975 2 6.2075 2 5.1875 C-0.64 5.1875 -3.28 5.1875 -6 5.1875 C-6.33 3.8675 -6.66 2.5475 -7 1.1875 C-4.52224905 -0.05137548 -2.76346293 0.02008331 0 0 Z " fill="#0D0D0D" transform="translate(72,236.8125)"/>
<path d="M0 0 C4.29332117 1.94431143 6.29689191 6.3831029 8.0078125 10.5390625 C11.16047526 19.62402579 14.19530278 29.18001306 13.90625 38.86328125 C12.58625 38.86328125 11.26625 38.86328125 9.90625 38.86328125 C9.24625 34.57328125 8.58625 30.28328125 7.90625 25.86328125 C3.61625 25.86328125 -0.67375 25.86328125 -5.09375 25.86328125 C-5.42375 24.54328125 -5.75375 23.22328125 -6.09375 21.86328125 C-2.13375 21.86328125 1.82625 21.86328125 5.90625 21.86328125 C5.28504354 19.94538171 4.65913109 18.02900603 4.03125 16.11328125 C3.68320313 15.0459375 3.33515625 13.97859375 2.9765625 12.87890625 C2.0995078 10.40778864 1.14698795 8.16591205 -0.09375 5.86328125 C-0.75375 5.86328125 -1.41375 5.86328125 -2.09375 5.86328125 C-6.675971 13.79929804 -9.1332375 22.08226512 -11.54052734 30.85302734 C-12.36887724 33.86301545 -13.232471 36.86256948 -14.09375 39.86328125 C-15.41375 39.53328125 -16.73375 39.20328125 -18.09375 38.86328125 C-16.48838953 26.53977879 -13.36815541 10.07995329 -4.125 0.91015625 C-2.09375 -0.13671875 -2.09375 -0.13671875 0 0 Z " fill="#101010" transform="translate(183.09375,236.13671875)"/>
<path d="M0 0 C4.8126017 3.95320854 7.55762152 8.85674788 8.22021484 15.0625 C8.35999499 17.42009155 8.41927847 19.76339419 8.4375 22.125 C8.45248535 23.270896 8.45248535 23.270896 8.46777344 24.43994141 C8.38924622 29.62161617 7.66673717 33.50681046 5 38 C2.3125 38.9375 2.3125 38.9375 0 39 C-5.14227999 28.37109092 -5.84918225 16.34068084 -2.5625 5 C-1.25194805 1.25194805 -1.25194805 1.25194805 0 0 Z " fill="#F5CD4C" transform="translate(208,112)"/>
<path d="M0 0 C2.4375 1.6875 2.4375 1.6875 4.4375 4.6875 C4.79317405 9.47541985 3.86171544 13.01374607 1.3125 17.0625 C-2.05668933 20.13871635 -4.21337265 21.3672292 -8.5625 22.6875 C-11.5 22.375 -11.5 22.375 -13.5625 21.6875 C-13.3359375 19.78125 -13.3359375 19.78125 -12.5625 17.6875 C-10.6015625 16.78125 -10.6015625 16.78125 -8.1875 16.1875 C-5.27442543 15.32608208 -3.77487585 14.88056896 -1.5 12.8125 C-0.38606153 10.2875728 -0.33487429 8.41900853 -0.5625 5.6875 C-5.30785599 2.94214401 -5.30785599 2.94214401 -14.5625 3.6875 C-14.5625 14.2475 -14.5625 24.8075 -14.5625 35.6875 C-16.5425 36.1825 -16.5425 36.1825 -18.5625 36.6875 C-20.00122482 33.81005036 -19.69232934 31.3176876 -19.6953125 28.10546875 C-19.69626923 27.45427567 -19.69722595 26.80308258 -19.69821167 26.13215637 C-19.69889252 24.75273543 -19.69704481 23.37331128 -19.69287109 21.99389648 C-19.68754726 19.89364302 -19.69280578 17.79360594 -19.69921875 15.69335938 C-19.69855745 14.35156203 -19.6972752 13.00976482 -19.6953125 11.66796875 C-19.69418457 10.45004639 -19.69305664 9.23212402 -19.69189453 7.97729492 C-19.57802833 5.08230042 -19.23224055 2.49848155 -18.5625 -0.3125 C-12.45751523 -2.08953782 -5.96191081 -2.19649346 0 0 Z " fill="#0E0E0E" transform="translate(254.5625,253.3125)"/>
<path d="M0 0 C2.4375 1.6875 2.4375 1.6875 4.4375 4.6875 C4.79317405 9.47541985 3.86171544 13.01374607 1.3125 17.0625 C-2.05668933 20.13871635 -4.21337265 21.3672292 -8.5625 22.6875 C-11.5 22.375 -11.5 22.375 -13.5625 21.6875 C-13.3359375 19.78125 -13.3359375 19.78125 -12.5625 17.6875 C-10.6015625 16.78125 -10.6015625 16.78125 -8.1875 16.1875 C-5.27442543 15.32608208 -3.77487585 14.88056896 -1.5 12.8125 C-0.38606153 10.2875728 -0.33487429 8.41900853 -0.5625 5.6875 C-5.30785599 2.94214401 -5.30785599 2.94214401 -14.5625 3.6875 C-14.5625 14.2475 -14.5625 24.8075 -14.5625 35.6875 C-16.5425 36.1825 -16.5425 36.1825 -18.5625 36.6875 C-20.00122482 33.81005036 -19.69232934 31.3176876 -19.6953125 28.10546875 C-19.69626923 27.45427567 -19.69722595 26.80308258 -19.69821167 26.13215637 C-19.69889252 24.75273543 -19.69704481 23.37331128 -19.69287109 21.99389648 C-19.68754726 19.89364302 -19.69280578 17.79360594 -19.69921875 15.69335938 C-19.69855745 14.35156203 -19.6972752 13.00976482 -19.6953125 11.66796875 C-19.69418457 10.45004639 -19.69305664 9.23212402 -19.69189453 7.97729492 C-19.57802833 5.08230042 -19.23224055 2.49848155 -18.5625 -0.3125 C-12.45751523 -2.08953782 -5.96191081 -2.19649346 0 0 Z " fill="#0E0E0E" transform="translate(223.5625,253.3125)"/>
<path d="M0 0 C3.10639164 2.07092776 3.84874457 3.28909949 4.625 6.9375 C3.91853449 10.39918102 2.75963195 11.91680415 -0.06640625 14.03125 C-3.53373591 15.76841718 -7.17302753 15.90645178 -11 16 C-10.67 14.68 -10.34 13.36 -10 12 C-7.03 11.34 -4.06 10.68 -1 10 C-0.67 8.35 -0.34 6.7 0 5 C-7.60648709 5.32724968 -7.60648709 5.32724968 -14 9 C-15.3309316 12.39969811 -15.3309316 12.39969811 -15 16 C-12.7640485 19.0345056 -10.90332468 19.85050167 -7.21484375 20.4609375 C-4.47379822 20.72266314 -1.75143096 20.90362764 1 21 C1.5625 22.9375 1.5625 22.9375 2 25 C1 26 1 26 -2.9375 26.375 C-8.7288856 26.31013648 -13.2452167 24.20507615 -18 21 C-20.3869005 18.26208472 -20.87279133 16.65017766 -21.5625 13.125 C-20.73858078 8.54767101 -18.52175927 5.96096958 -15 3 C-10.26690514 0.28444659 -5.44000383 -0.73230821 0 0 Z " fill="#141414" transform="translate(285,251)"/>
<path d="M0 0 C1.32 0.33 2.64 0.66 4 1 C3.67 5.29 3.34 9.58 3 14 C5.97 14 8.94 14 12 14 C12 15.32 12 16.64 12 18 C11 19 11 19 9.15234375 19.09765625 C7.1015625 19.06510417 5.05078125 19.03255208 3 19 C3.11478444 23.78964168 3.27150184 27.04890518 6.25 30.9375 C8.81492743 32.86119557 10.95532481 34.04310208 14 35 C13.67 36.32 13.34 37.64 13 39 C6.83588545 38.63015313 4.19994054 37.29761357 0 33 C-2.85538552 28.45734121 -2.18124162 23.18552419 -2 18 C-3.98 18 -5.96 18 -8 18 C-8.33 16.68 -8.66 15.36 -9 14 C-6.69 14 -4.38 14 -2 14 C-2.02320313 13.40832031 -2.04640625 12.81664062 -2.0703125 12.20703125 C-2.17411464 7.66198041 -2.13708357 4.14059941 0 0 Z " fill="#151515" transform="translate(345,237)"/>
<path d="M0 0 C0.99 0 1.98 0 3 0 C3.02705729 1.77074917 3.04642195 3.54161711 3.0625 5.3125 C3.07410156 6.29863281 3.08570313 7.28476563 3.09765625 8.30078125 C3 11 3 11 2 14 C4.97 14 7.94 14 11 14 C11.33 15.32 11.66 16.64 12 18 C8.7 18 5.4 18 2 18 C2.22860572 19.94014063 2.48369181 21.87717414 2.75 23.8125 C2.88921875 24.89144531 3.0284375 25.97039062 3.171875 27.08203125 C4.13547869 30.47737068 4.98302212 31.28887822 8 33 C9.64797236 33.71162443 11.31165408 34.39031953 13 35 C13 36.32 13 37.64 13 39 C7.43146487 38.62247219 3.89859131 38.3441446 0 34 C-2.90709441 28.71330816 -3.31840642 23.94358647 -3 18 C-4.98 18 -6.96 18 -9 18 C-9.33 16.68 -9.66 15.36 -10 14 C-7.69 14 -5.38 14 -3 14 C-3.04125 12.783125 -3.0825 11.56625 -3.125 10.3125 C-3.13126654 6.77817381 -2.64199013 4.18739261 -1 1 C-0.67 0.67 -0.34 0.34 0 0 Z " fill="#131313" transform="translate(303,237)"/>
<path d="M0 0 C3.3472888 1.40069129 4.91745986 3.93081985 6.97900391 6.828125 C7.79150391 9.703125 7.79150391 9.703125 7.97900391 11.828125 C4.41450295 14.12146202 1.00757561 15.64794998 -3.02099609 16.953125 C-4.03162109 17.28570312 -5.04224609 17.61828125 -6.08349609 17.9609375 C-11.20945571 19.47418622 -15.66363259 19.93317134 -21.02099609 19.828125 C-17.04379333 14.94184732 -12.77247716 10.35613019 -8.39599609 5.828125 C-7.83372314 5.22782471 -7.2714502 4.62752441 -6.69213867 4.0090332 C-2.54973786 -0.21684168 -2.54973786 -0.21684168 0 0 Z " fill="#FBD65F" transform="translate(352.02099609375,214.171875)"/>
<path d="M0 0 C3.86486124 1.5745731 6.13495301 4.0047236 9 7 C9.66902344 7.63679687 10.33804687 8.27359375 11.02734375 8.9296875 C12.09662109 9.95449219 12.09662109 9.95449219 13.1875 11 C13.86167969 11.639375 14.53585937 12.27875 15.23046875 12.9375 C17.15855178 15.18480208 18.05580484 17.21099277 19 20 C10.20753786 19.52897524 2.29384797 16.75783166 -6 14 C-6.625 11.6875 -6.625 11.6875 -7 9 C-6.34 8.01 -5.68 7.02 -5 6 C-5.66 5.67 -6.32 5.34 -7 5 C-6.21625 4.54625 -5.4325 4.0925 -4.625 3.625 C-1.96301969 2.11571258 -1.96301969 2.11571258 0 0 Z " fill="#FAD662" transform="translate(303,211)"/>
<path d="M0 0 C0.886875 -0.00257813 1.77375 -0.00515625 2.6875 -0.0078125 C5 0.125 5 0.125 7 1.125 C6.42063175 7.46138191 4.93337939 13.09568452 2.9375 19.125 C2.65583984 19.99511719 2.37417969 20.86523438 2.08398438 21.76171875 C1.39567574 23.88497589 0.70093339 26.00588417 0 28.125 C-0.99 28.125 -1.98 28.125 -3 28.125 C-6.27095102 18.86759145 -7.14303623 10.94682123 -7 1.125 C-4.51245214 -0.11877393 -2.77344699 -0.00806235 0 0 Z " fill="#FBD65E" transform="translate(328,202.875)"/>
<path d="M0 0 C2.9375 1.5 2.9375 1.5 5 3 C4.63608932 9.30778515 4.63608932 9.30778515 1.875 12.3125 C-1.33691857 14.19775655 -4.41799387 15.03561374 -8 16 C-9.21693876 18.43387753 -9.31959896 20.41838846 -9.5625 23.125 C-9.68818359 24.49011719 -9.68818359 24.49011719 -9.81640625 25.8828125 C-9.87699219 26.58148438 -9.93757812 27.28015625 -10 28 C-10.33 28 -10.66 28 -11 28 C-11.02905924 24.2500163 -11.04681874 20.50006163 -11.0625 16.75 C-11.07087891 15.68652344 -11.07925781 14.62304688 -11.08789062 13.52734375 C-11.09111328 12.50253906 -11.09433594 11.47773438 -11.09765625 10.421875 C-11.10289307 9.47924805 -11.10812988 8.53662109 -11.11352539 7.56542969 C-11.00752737 5.17010241 -10.88186055 3.23071855 -10 1 C-6.42365687 -0.19211438 -3.75935317 -0.25926574 0 0 Z " fill="#EFEFEF" transform="translate(250,256)"/>
<path d="M0 0 C2.9375 1.5 2.9375 1.5 5 3 C4.63608932 9.30778515 4.63608932 9.30778515 1.875 12.3125 C-1.33691857 14.19775655 -4.41799387 15.03561374 -8 16 C-9.21693876 18.43387753 -9.31959896 20.41838846 -9.5625 23.125 C-9.68818359 24.49011719 -9.68818359 24.49011719 -9.81640625 25.8828125 C-9.87699219 26.58148438 -9.93757812 27.28015625 -10 28 C-10.33 28 -10.66 28 -11 28 C-11.02905924 24.2500163 -11.04681874 20.50006163 -11.0625 16.75 C-11.07087891 15.68652344 -11.07925781 14.62304688 -11.08789062 13.52734375 C-11.09111328 12.50253906 -11.09433594 11.47773438 -11.09765625 10.421875 C-11.10289307 9.47924805 -11.10812988 8.53662109 -11.11352539 7.56542969 C-11.00752737 5.17010241 -10.88186055 3.23071855 -10 1 C-6.42365687 -0.19211438 -3.75935317 -0.25926574 0 0 Z " fill="#EFEFEF" transform="translate(219,256)"/>
<path d="M0 0 C1.94140625 0.41015625 1.94140625 0.41015625 4.44140625 2.47265625 C6.33616287 6.18322131 6.60295349 8.29386233 5.94140625 12.41015625 C3.87890625 15.41015625 3.87890625 15.41015625 0.94140625 17.41015625 C-2.81461729 17.47491528 -5.00016979 17.22958125 -7.99609375 14.91015625 C-9.57779621 11.1885034 -9.80580743 7.38797025 -9.05859375 3.41015625 C-6.59102073 0.03705185 -4.13630638 -0.17520266 0 0 Z " fill="#F7F7F7" transform="translate(101.05859375,254.58984375)"/>
<path d="M0 0 C6.18923076 7.85905255 8.57505347 15.26797141 8.37109375 25.25 C8 28 8 28 6 31 C4.1875 30.875 4.1875 30.875 2 30 C-1.52885273 24.72797906 -1.3920811 19.97560724 -1.25 13.875 C-1.24484375 12.98167969 -1.2396875 12.08835938 -1.234375 11.16796875 C-1.18773641 7.26781689 -1.0709939 3.76994144 0 0 Z " fill="#F3CB4B" transform="translate(139,125)"/>
<path d="M0 0 C1.74861792 -0.10853491 3.49919241 -0.18583428 5.25 -0.25 C6.22453125 -0.29640625 7.1990625 -0.3428125 8.203125 -0.390625 C11 0 11 0 13.33203125 1.48828125 C15.69029736 5.03948759 15.5464179 8.3232142 15.4375 12.4375 C15.44458984 13.18837891 15.45167969 13.93925781 15.45898438 14.71289062 C15.40721468 19.24074758 14.96540138 22.35306383 12 26 C11.34 26 10.68 26 10 26 C10.00523682 25.39937744 10.01047363 24.79875488 10.01586914 24.17993164 C10.03658014 21.47413162 10.04964125 18.76834823 10.0625 16.0625 C10.07087891 15.11697266 10.07925781 14.17144531 10.08789062 13.19726562 C10.09111328 12.29814453 10.09433594 11.39902344 10.09765625 10.47265625 C10.10289307 9.64000244 10.10812988 8.80734863 10.11352539 7.94946289 C10.21643292 5.99483202 10.21643292 5.99483202 9 5 C7.31391034 4.92794489 5.62499341 4.91613932 3.9375 4.9375 C3.01839844 4.94652344 2.09929687 4.95554687 1.15234375 4.96484375 C0.44207031 4.97644531 -0.26820312 4.98804688 -1 5 C-0.67 3.35 -0.34 1.7 0 0 Z " fill="#121212" transform="translate(125,252)"/>
<path d="M0 0 C3.81243153 2.70883293 5.44648311 4.6225669 7 9 C-8.52844311 15.32185629 -8.52844311 15.32185629 -14 15 C-9.59156563 9.70987876 -4.92440206 4.81191572 0 0 Z " fill="#FEFDF9" transform="translate(351,216)"/>
<path d="M0 0 C2.05078125 0.03255208 4.1015625 0.06510417 6.15234375 0.09765625 C5.575863 7.44778581 3.44188211 14.11190201 1.15234375 21.09765625 C-2.8265118 15.12937293 -3.50969299 8.13372116 -2.84765625 1.09765625 C-1.84765625 0.09765625 -1.84765625 0.09765625 0 0 Z " fill="#FEFDFA" transform="translate(325.84765625,204.90234375)"/>
<path d="M0 0 C1.98 0.495 1.98 0.495 4 1 C4 8.26 4 15.52 4 23 C3.01 23.33 2.02 23.66 1 24 C-1.46623808 16.44714587 -1.42723601 8.87902686 -1 1 C-0.67 0.67 -0.34 0.34 0 0 Z " fill="#212121" transform="translate(118,251)"/>
<path d="M0 0 C8.36628849 7.05024311 8.36628849 7.05024311 11 10 C11 10.66 11 11.32 11 12 C4.68878497 10.9007105 -1.06338584 9.41862058 -7 7 C-6.69140625 5.109375 -6.69140625 5.109375 -6 3 C-2.9375 1.25 -2.9375 1.25 0 0 Z " fill="#FDFAF1" transform="translate(306,216)"/>
<path d="M0 0 C0.99 0 1.98 0 3 0 C3 8.25 3 16.5 3 25 C1.68 24.67 0.36 24.34 -1 24 C-1.02893932 20.37501666 -1.04677792 16.75006287 -1.0625 13.125 C-1.07087891 12.09246094 -1.07925781 11.05992187 -1.08789062 9.99609375 C-1.09111328 9.00996094 -1.09433594 8.02382813 -1.09765625 7.0078125 C-1.10289307 6.09660645 -1.10812988 5.18540039 -1.11352539 4.24658203 C-1 2 -1 2 0 0 Z " fill="#0C0C0C" transform="translate(324,251)"/>
<path d="M0 0 C7.53171922 0.17296224 12.70281864 1.87793201 19 6 C19 6.99 19 7.98 19 9 C12.79778026 9.64606456 8.86124922 8.90918131 3.62890625 5.484375 C1.79852413 3.81640089 0.96268577 2.26400473 0 0 Z " fill="#ECC649" transform="translate(102,150)"/>
<path d="M0 0 C4.55555556 0.55555556 4.55555556 0.55555556 6 2 C6.125 4.5 6.125 4.5 6 7 C5 8 5 8 2 8.125 C-1 8 -1 8 -2 7 C-2.1875 4.5625 -2.1875 4.5625 -2 2 C-1.34 1.34 -0.68 0.68 0 0 Z " fill="#FBD251" transform="translate(323,238)"/>
<path d="M0 0 C2.46800047 1.15173355 4.04783565 2.04783565 6 4 C1.59585492 6.99481865 1.59585492 6.99481865 -1 8 C-4.4375 7.25 -4.4375 7.25 -7 6 C-6.21625 5.38125 -5.4325 4.7625 -4.625 4.125 C-2.03162353 2.10141339 -2.03162353 2.10141339 0 0 Z " fill="#E2C155" transform="translate(303,211)"/>
<path d="M0 0 C0.99 0.33 1.98 0.66 3 1 C2.01 5.29 1.02 9.58 0 14 C-0.99 13.67 -1.98 13.34 -3 13 C-2.01 8.71 -1.02 4.42 0 0 Z " fill="#FBDB73" transform="translate(332,205)"/>
<path d="M0 0 C0.99 0.33 1.98 0.66 3 1 C3 1.66 3 2.32 3 3 C1.02 3.66 -0.96 4.32 -3 5 C-1.125 1.125 -1.125 1.125 0 0 Z " fill="#1F1D14" transform="translate(303,214)"/>
</svg>
