<?xml version="1.0" encoding="UTF-8"?>
<svg version="1.1" xmlns="http://www.w3.org/2000/svg" width="500" height="500">
<path d="M0 0 C0.90045044 -0.00705963 1.80090088 -0.01411926 2.7286377 -0.02139282 C40.56271231 -0.2507174 40.56271231 -0.2507174 57.20703125 3.203125 C58.69759033 3.50911621 58.69759033 3.50911621 60.21826172 3.82128906 C82.21378087 8.47295034 102.99514255 15.36588877 123.20703125 25.203125 C123.94405273 25.56132324 124.68107422 25.91952148 125.44042969 26.28857422 C144.89901796 35.8774365 162.98020988 48.4248097 178.93359375 63.11328125 C181.05333337 65.06183915 183.21186594 66.95069833 185.39453125 68.828125 C191.89170121 74.51964589 197.4893498 80.59900765 202.8984375 87.33984375 C204.36112473 89.1539719 205.84574865 90.95080689 207.359375 92.72265625 C240.62231866 131.88029879 262.13973065 186.51250595 262.41015625 237.99609375 C262.41721588 238.89654419 262.42427551 239.79699463 262.43154907 240.72473145 C262.66087365 278.55880606 262.66087365 278.55880606 259.20703125 295.203125 C258.90104004 296.69368408 258.90104004 296.69368408 258.58886719 298.21435547 C253.93720591 320.20987462 247.04426748 340.9912363 237.20703125 361.203125 C236.84883301 361.94014648 236.49063477 362.67716797 236.12158203 363.43652344 C226.53271975 382.89511171 213.98534655 400.97630363 199.296875 416.9296875 C197.3483171 419.04942712 195.45945792 421.20795969 193.58203125 423.390625 C187.89051036 429.88779496 181.8111486 435.48544355 175.0703125 440.89453125 C173.25618435 442.35721848 171.45934936 443.8418424 169.6875 445.35546875 C130.52985746 478.61841241 75.8976503 500.1358244 24.4140625 500.40625 C23.06338684 500.41683945 23.06338684 500.41683945 21.6854248 500.42764282 C-16.14864981 500.6569674 -16.14864981 500.6569674 -32.79296875 497.203125 C-34.28352783 496.89713379 -34.28352783 496.89713379 -35.80419922 496.58496094 C-57.79971837 491.93329966 -78.58108005 485.04036123 -98.79296875 475.203125 C-99.52999023 474.84492676 -100.26701172 474.48672852 -101.02636719 474.11767578 C-120.48495546 464.5288135 -138.56614738 451.9814403 -154.51953125 437.29296875 C-156.63927087 435.34441085 -158.79780344 433.45555167 -160.98046875 431.578125 C-167.47763871 425.88660411 -173.0752873 419.80724235 -178.484375 413.06640625 C-179.94706223 411.2522781 -181.43168615 409.45544311 -182.9453125 407.68359375 C-216.20825616 368.52595121 -237.72566815 313.89374405 -237.99609375 262.41015625 C-238.00315338 261.50970581 -238.01021301 260.60925537 -238.01748657 259.68151855 C-238.24681115 221.84744394 -238.24681115 221.84744394 -234.79296875 205.203125 C-234.48697754 203.71256592 -234.48697754 203.71256592 -234.17480469 202.19189453 C-229.52314341 180.19637538 -222.63020498 159.4150137 -212.79296875 139.203125 C-212.43477051 138.46610352 -212.07657227 137.72908203 -211.70751953 136.96972656 C-202.11865725 117.51113829 -189.57128405 99.42994637 -174.8828125 83.4765625 C-172.9342546 81.35682288 -171.04539542 79.19829031 -169.16796875 77.015625 C-163.47644786 70.51845504 -157.3970861 64.92080645 -150.65625 59.51171875 C-148.84212185 58.04903152 -147.04528686 56.5644076 -145.2734375 55.05078125 C-106.11579496 21.78783759 -51.4835878 0.2704256 0 0 Z " fill="#FEFEFE" transform="translate(237.79296875,-0.203125)"/>
<path d="M0 0 C0.73605469 0.51304687 1.47210938 1.02609375 2.23046875 1.5546875 C3.83221732 2.68646194 5.41843609 3.84018647 7 5 C7.58265625 4.52949219 8.1653125 4.05898437 8.765625 3.57421875 C18.03335558 -3.4640106 26.97555355 -5.9385305 38.57421875 -4.6328125 C54.82103066 -1.63169103 69.6496692 6.26281233 79.6875 19.625 C87.83031542 31.82990641 89.15516363 44.27956253 89.4296875 58.52539062 C89.47609375 59.87987305 89.47609375 59.87987305 89.5234375 61.26171875 C89.54325684 62.07600342 89.56307617 62.89028809 89.58349609 63.72924805 C90.10683778 66.58247256 90.94385632 67.95993116 93 70 C100.44171109 71.91024694 107.83559136 68.60259037 114.6875 66 C128.84408259 60.98686478 140.81261514 59.72729408 155 66 C167.84135392 73.27616688 176.57594608 83.91950455 181 98 C181.66083909 100.81570585 182.12988093 103.64124055 182.5625 106.5 C182.68834473 107.27899658 182.81418945 108.05799316 182.94384766 108.8605957 C183.64512547 113.30187179 184.2029696 117.73920932 184.66479492 122.2109375 C185.94182182 134.21884661 188.62601059 145.8970249 197 155 C198.1446875 156.26650391 198.1446875 156.26650391 199.3125 157.55859375 C200.8769077 159.28596058 202.45404102 161.00193497 204.046875 162.703125 C208.57545506 168.02873515 208.4357498 172.53635217 208.30078125 179.3984375 C207.37275026 190.51070473 201.05817669 197.43839517 193.09375 204.75 C180.08457096 215.33373888 165.18701538 217.48905138 149 216 C140.90461627 214.4434889 134.17536341 210.29510327 128 205 C127.20722656 204.41089844 126.41445313 203.82179688 125.59765625 203.21484375 C122.59085076 200.65114644 120.29943658 197.76277742 117.9375 194.625 C87.91265977 155.74328975 52.88728702 128.38199778 4.375 117.75 C3.69711426 117.59885742 3.01922852 117.44771484 2.32080078 117.29199219 C-13.50647369 114.04668666 -29.3897045 113.67849083 -45.48828125 113.73925781 C-48.89080343 113.75005013 -52.29280549 113.73926207 -55.6953125 113.7265625 C-57.89843864 113.72788321 -60.10156447 113.73044377 -62.3046875 113.734375 C-63.30184784 113.73032654 -64.29900818 113.72627808 -65.3263855 113.72210693 C-88.33383676 113.87287439 -109.45175255 121.47524734 -126.33203125 137.16796875 C-140.83968718 151.92277384 -144.50174341 170.61416481 -144.35424805 190.62841797 C-144.05028867 203.00375328 -143.59132284 217.62769751 -136 228 C-129.7590589 231.12047055 -122.42003949 228.75881367 -116.18359375 226.69921875 C-113.25976316 225.71890428 -110.34726662 224.70872388 -107.4375 223.6875 C-91.31001712 218.04893716 -76.02024883 214.4067457 -58.8125 214.5 C-57.50716309 214.50644531 -56.20182617 214.51289063 -54.85693359 214.51953125 C-27.54668147 214.8984355 -0.93148052 220.18016631 25.39306641 227.06738281 C58.41973687 236.72500573 58.41973687 236.72500573 90.8125 230.4375 C96.95806083 223.58958936 98.61681874 216.27404057 99.36791992 207.35839844 C99.81765718 202.18234282 99.81765718 202.18234282 102 200 C104.625 200.375 104.625 200.375 107 201 C107.69261079 212.77438342 104.41121598 223.62824358 97.75 233.25 C90.67346522 240.32653478 81.65295521 242.08807575 71.9375 242.25 C56.59833763 241.96510842 42.51274368 238.5243597 27.6875 234.87109375 C-20.48549616 223.05266823 -65.42504957 215.5994282 -112.76049805 233.2902832 C-121.02565604 236.33060377 -129.30234487 239.37356318 -137.8125 235.5 C-145.11589617 230.60242845 -147.92957672 221.41524874 -149.5546875 213.19384766 C-150.90979042 204.94205264 -151.33473222 196.91736969 -151.3125 188.5625 C-151.32861328 187.35529297 -151.34472656 186.14808594 -151.36132812 184.90429688 C-151.37245692 164.1045722 -144.41789953 146.00562524 -130.3125 130.75 C-117.25093169 118.46590599 -100.34977364 111.47225678 -83 108 C-81.75621582 107.73292236 -81.75621582 107.73292236 -80.48730469 107.46044922 C-71.13723594 105.64840784 -61.86235862 105.6046917 -52.375 105.625 C-51.5067157 105.62487915 -50.6384314 105.6247583 -49.74383545 105.62463379 C-26.21507003 105.67085398 -1.67842154 107.33429227 21 114 C21.75748535 114.21962402 22.5149707 114.43924805 23.29541016 114.66552734 C43.43168854 120.68724898 62.0743529 130.38552071 78.35839844 143.66845703 C79.81253939 144.84794614 81.29872477 145.98768564 82.7890625 147.12109375 C96.4822817 157.7323044 108.9492416 170.78023827 119.24951172 184.68701172 C125.33417222 192.89964092 131.01802365 199.74290207 140 205 C140.7528125 205.45117188 141.505625 205.90234375 142.28125 206.3671875 C151.0759685 210.73442785 162.37886537 210.38176426 171.734375 208.08203125 C183.81731052 203.69983985 193.38852172 196.7818696 200 185.625 C201.55466413 179.98934252 202.573261 174.19673245 199.8984375 168.76171875 C197.4337476 165.36782757 194.56642775 162.59105556 191.5 159.75 C186.91259325 155.33551102 184.53395017 149.75826447 182 144 C181.50149536 142.91271606 181.50149536 142.91271606 180.99291992 141.8034668 C179.76647743 138.34065906 179.29821311 134.9029413 178.8515625 131.27734375 C178.64871568 129.75321816 178.44558117 128.22913084 178.2421875 126.70507812 C177.93308896 124.33199118 177.62765463 121.95854273 177.328125 119.58422852 C175.62993503 106.24310289 173.60921 93.82420092 165 83 C164.51015625 82.37351562 164.0203125 81.74703125 163.515625 81.1015625 C157.1363075 73.86956395 146.4052933 69.04594978 136.8125 68.4375 C129.67766974 68.42950131 123.7312796 70.60268916 117.0625 73 C97.6723165 79.90100717 97.6723165 79.90100717 88.93359375 76.1015625 C85.17158764 73.40017016 83.24142165 69.34571678 82 65 C81.6048785 61.29262936 81.59138962 57.60084868 81.5625 53.875 C81.12598474 38.4328167 78.13069246 26.85813448 66.64453125 15.71484375 C54.71728623 5.5700487 41.47544192 1.94635289 26 3 C19.82873243 4.10324337 16.01296391 6.2103334 12 11 C12.65355469 11.76570313 12.65355469 11.76570313 13.3203125 12.546875 C26.60358135 28.7628136 29.68628405 46.53651306 28 67 C26.68506856 76.34748833 24.45235689 87.04234943 17.1875 93.5 C13.3458546 95.30783313 11.19787252 95.67465808 7 95 C0.09956547 90.85973928 -2.60058382 84.39976447 -4.9765625 76.9296875 C-7.01477132 68.56731672 -7.27539003 60.38794504 -7.3125 51.8125 C-7.31805908 50.73226562 -7.32361816 49.65203125 -7.3293457 48.5390625 C-7.24370808 38.92422682 -6.53670742 29.38497329 -2.4375 20.5625 C-0.81246895 17.01829281 0.37696997 13.8571859 1 10 C-5.9715446 3.93217415 -13.53670708 -0.39180453 -22 -4 C-23.19625 -4.51175781 -24.3925 -5.02351562 -25.625 -5.55078125 C-42.50367394 -11.92943831 -64.98047757 -11.97771321 -81.796875 -5.48046875 C-82.85390625 -4.99191406 -83.9109375 -4.50335938 -85 -4 C-86.52367187 -3.31357422 -86.52367187 -3.31357422 -88.078125 -2.61328125 C-100.79228481 3.72642959 -108.92371989 13.67713335 -115.37109375 26.11328125 C-116.19946105 28.59838316 -116.28751911 30.38869634 -116 33 C-114.75748171 35.53704225 -114.75748171 35.53704225 -113 38.125 C-109.74365988 43.47707021 -107.12724675 48.91846852 -104.6875 54.6875 C-104.35041016 55.4707666 -104.01332031 56.2540332 -103.66601562 57.06103516 C-99.03200062 68.20841569 -96.36521629 81.77999847 -100.0625 93.625 C-102.44095476 97.76811475 -104.83737613 100.61273952 -109 103 C-112.77442713 103.89213732 -114.72853624 103.75284038 -118.078125 101.76953125 C-126.07728372 95.5331501 -128.33656589 86.62613478 -130 77 C-130.27936105 74.03442432 -130.33311325 71.10250469 -130.3125 68.125 C-130.31048584 67.31635498 -130.30847168 66.50770996 -130.30639648 65.67456055 C-130.18400363 58.07960744 -129.10087009 50.73228408 -127.75390625 43.26953125 C-127.62886719 42.55933838 -127.50382812 41.84914551 -127.375 41.11743164 C-127.12172053 39.68729305 -126.85575998 38.25935087 -126.578125 36.83374023 C-126.0363221 33.63390291 -125.77741779 31.49886433 -127.1171875 28.49609375 C-134.57630106 19.76064298 -144.02916237 11.19708376 -156 10 C-156.94746094 9.90525391 -156.94746094 9.90525391 -157.9140625 9.80859375 C-166.22656006 9.35331562 -174.78704358 12.19712048 -181.375 17.328125 C-191.96567782 28.22430314 -195.37765232 42.87184512 -195.25 57.5625 C-195.25773437 58.45646484 -195.26546875 59.35042969 -195.2734375 60.27148438 C-195.25704086 65.87503498 -194.47622421 70.60475201 -193 76 C-193 77.32 -193 78.64 -193 80 C-191.94683594 79.94199219 -190.89367187 79.88398438 -189.80859375 79.82421875 C-175.57689527 79.28272322 -163.42555943 81.88004674 -152 91 C-151.154375 91.598125 -150.30875 92.19625 -149.4375 92.8125 C-147.12069796 96.33806833 -147.24259963 99.92053664 -148 104 C-150.19831364 107.03215675 -151.44963194 107.81654398 -155 109 C-167.13780134 110.0517129 -176.58976523 107.70644564 -185.9921875 99.87109375 C-189.86496661 96.26202528 -193.06799769 92.39800347 -196 88 C-202.63812382 89.28104144 -208.08147454 91.13516476 -212.2890625 96.70703125 C-217.11463072 104.67442627 -217.13849883 114.41810289 -215.31640625 123.3515625 C-211.54679837 136.45916168 -205.21553893 148.22682928 -193.25 155.5 C-187.0996385 158.33862838 -181.53441688 158.02872075 -174.86328125 157.83984375 C-172 158 -172 158 -170 160 C-170.53571429 163.53571429 -170.53571429 163.53571429 -172 165 C-182.60996966 165.7788305 -191.87696519 165.73392841 -200.6171875 158.9765625 C-203.18748301 156.74185453 -205.60472116 154.42027305 -208 152 C-208.84884766 151.20142578 -208.84884766 151.20142578 -209.71484375 150.38671875 C-219.96320463 139.86651805 -223.41752551 124.4554686 -223.36694336 110.30932617 C-223.13108705 101.94521389 -221.08402289 95.92813231 -215.375 89.6875 C-211.18075015 85.80072336 -204.96685833 81 -199 81 C-199.4640625 79.948125 -199.4640625 79.948125 -199.9375 78.875 C-205.5713784 63.63038785 -203.59271362 42.61181911 -197 28 C-191.30353897 16.06150139 -183.1758496 9.02688648 -171 4 C-161.39234981 0.89831765 -150.95288498 2.93164834 -142 7 C-134.03650277 11.42278473 -127.3128343 17.49586769 -121 24 C-120.814375 23.21625 -120.62875 22.4325 -120.4375 21.625 C-118.40176592 16.49140971 -115.30135746 12.39712717 -112 8 C-111.33871094 7.06800781 -111.33871094 7.06800781 -110.6640625 6.1171875 C-100.83673691 -6.68811554 -83.43482801 -13.86783477 -68.03515625 -16.52734375 C-43.94532952 -19.67053233 -19.88015549 -13.99094412 0 0 Z " fill="#0A0A09" transform="translate(253,139)"/>
<path d="M0 0 C9.87811714 5.50894994 15.85709856 13.60690814 20 24 C20.38185762 25.6562227 20.73302379 27.32142543 21 29 C20.2265625 29.3403125 20.2265625 29.3403125 19.4375 29.6875 C16.81809597 31.00235432 16.81809597 31.00235432 14.125 33.3125 C-2.93742029 45.56707729 -28.95400493 45.18770086 -48.90405273 45.18530273 C-50.93299192 45.18749513 -52.96138994 45.20577168 -54.99023438 45.22460938 C-80.09479066 45.337067 -80.09479066 45.337067 -86 40 C-85.79238855 30.24226188 -78.15950437 23.76427592 -71.5546875 17.28515625 C-66.96296348 13.17788018 -62.00719502 9.58382994 -57 6 C-57.99 5.34 -58.98 4.68 -60 4 C-59.14921875 3.93683594 -58.2984375 3.87367188 -57.421875 3.80859375 C-49.37316104 2.99515989 -42.4438989 1.24885666 -34.875 -1.625 C-21.91699352 -6.42747262 -12.4714435 -6.50930107 0 0 Z " fill="#F9D14E" transform="translate(407,212)"/>
<path d="M0 0 C3.71007856 3.51666214 6.94616357 7.27047892 9.16015625 11.90625 C8.7355957 14.56420898 8.7355957 14.56420898 8.16015625 16.90625 C1.42013817 18.48011592 -4.92374977 19.23120339 -11.83984375 19.15625 C-12.743396 19.15093262 -13.64694824 19.14561523 -14.57788086 19.14013672 C-23.4194004 19.0178645 -32.09115199 18.13097794 -40.83984375 16.90625 C-41.89171875 16.77347656 -42.94359375 16.64070313 -44.02734375 16.50390625 C-50.03700105 15.64655025 -55.82220263 14.18992734 -61.65234375 12.53125 C-62.35818604 12.33426514 -63.06402832 12.13728027 -63.79125977 11.93432617 C-68.59444363 10.50828351 -72.56965865 8.52976241 -76.83984375 5.90625 C-76.83984375 3.65625 -76.83984375 3.65625 -75.83984375 0.90625 C-59.66867581 -10.15573739 -16.0157693 -11.80804999 0 0 Z " fill="#FAD150" transform="translate(445.83984375,298.09375)"/>
<path d="M0 0 C9.64297521 8.81643448 14.54335557 20.93272656 15.453125 33.88671875 C15.91506385 46.57217547 15.13247966 61.67800659 7 72 C4.25 72.875 4.25 72.875 2 73 C-6.14162147 65.53684699 -7.51662808 52.39430532 -8.12402344 41.84619141 C-8.63473951 27.50515806 -8.56065503 12.18116921 0 0 Z " fill="#F7CF4C" transform="translate(260,155)"/>
<path d="M0 0 C3.68171719 4.15119791 5.8576943 8.47253519 8.0625 13.5 C8.41248047 14.29664063 8.76246094 15.09328125 9.12304688 15.9140625 C14.09056665 27.55171712 17.9137642 40.7155895 13 53 C11.1875 55.5 11.1875 55.5 9 57 C6.5625 57.25 6.5625 57.25 4 56 C-3.27907688 47.34040854 -3.31818611 38.06886249 -3.25 27.25 C-3.25773438 26.03828125 -3.26546875 24.8265625 -3.2734375 23.578125 C-3.23657332 6.47314665 -3.23657332 6.47314665 0 0 Z " fill="#F6CD4C" transform="translate(133,179)"/>
<path d="M0 0 C12.10052112 -0.60502606 23.9954321 2.49641094 33.625 10.0625 C35 12 35 12 35 16 C30.39650926 18.30174537 24.29194839 17.51008776 19.40234375 16.421875 C12.02335959 13.84917054 4.59935631 8.62812221 0.71875 1.71875 C0.4815625 1.1515625 0.244375 0.584375 0 0 Z " fill="#F2CA4B" transform="translate(64,225)"/>
</svg>
